<svg xmlns="http://www.w3.org/2000/svg" width="38.088" height="27.14" viewBox="0 0 38.088 27.14">
  <g id="Group_27" data-name="Group 27" transform="translate(-626.626 -3039.43)">
    <g id="Group_23" data-name="Group 23" transform="translate(624.546 3028.75)">
      <path id="Path_81" data-name="Path 81" d="M34.758,37.82H7.49a5.417,5.417,0,0,1-5.41-5.41V16.09a5.417,5.417,0,0,1,5.41-5.41H34.758a5.417,5.417,0,0,1,5.41,5.41V32.41A5.417,5.417,0,0,1,34.758,37.82ZM7.49,12.589a3.5,3.5,0,0,0-3.5,3.5V32.41a3.5,3.5,0,0,0,3.5,3.5H34.758a3.5,3.5,0,0,0,3.5-3.5V16.09a3.5,3.5,0,0,0-3.5-3.5Z" fill="#fff"/>
      <path id="Path_82" data-name="Path 82" d="M21.415,30.047a5.417,5.417,0,0,1-3.265-1.088L3.288,17.718A.955.955,0,1,1,4.44,16.2L19.3,27.45a3.533,3.533,0,0,0,4.226,0L38.391,16.2a.955.955,0,1,1,1.152,1.521L24.681,28.959a5.417,5.417,0,0,1-3.265,1.088Z" transform="translate(-0.291 -1.927)" fill="#fff"/>
      <path id="Path_83" data-name="Path 83" d="M3.624,42.084a.955.955,0,0,1-.636-1.668L14.7,29.971A.956.956,0,1,1,15.972,31.4L4.26,41.842a.929.929,0,0,1-.636.242Zm35.427,0a.929.929,0,0,1-.636-.242L26.7,31.4a.956.956,0,0,1,1.273-1.426L39.681,40.416a.955.955,0,0,1-.636,1.668Z" transform="translate(-0.214 -6.924)" fill="#fff"/>
    </g>
  </g>
</svg>
