<svg xmlns="http://www.w3.org/2000/svg" width="69.825" height="88.41" viewBox="0 0 69.825 88.41">
  <g id="_Group_" data-name="&lt;Group&gt;" transform="translate(-65 -14)">
    <g id="_Group_2" data-name=" Group " transform="translate(65 14)">
      <g id="_Group_3" data-name="&lt;Group&gt;" transform="translate(0 0)">
        <g id="_Group_4" data-name="&lt;Group&gt;" transform="translate(1.47 1.523)">
          <g id="_Group_5" data-name="&lt;Group&gt;" transform="translate(15.924)">
            <path id="_Path_" data-name="&lt;Path&gt;" d="M211.121,27.358V90.2a.941.941,0,0,1-1.556.616L203.4,85.677a.994.994,0,0,0-.218-.133h-.024V35.321a5.315,5.315,0,0,0-5.56-5.028H160.16V27.358a5.313,5.313,0,0,1,5.559-5.028h39.842A5.315,5.315,0,0,1,211.121,27.358Z" transform="translate(-160.16 -22.33)" fill="#005880"/>
          </g>
          <g id="_Group_6" data-name="&lt;Group&gt;" transform="translate(7.962 7.962)">
            <path id="_Path_2" data-name="&lt;Path&gt;" d="M124.562,65.89H162a5.315,5.315,0,0,1,5.56,5.028v62.846a.941.941,0,0,1-1.556.616l-6.165-5.144a1.017,1.017,0,0,0-.241-.144V78.881a5.314,5.314,0,0,0-5.559-5.028H116.6V70.918a5.315,5.315,0,0,1,5.56-5.028Z" transform="translate(-116.6 -65.89)" fill="#029d9d"/>
          </g>
          <g id="_Group_7" data-name="&lt;Group&gt;" transform="translate(0 15.924)">
            <path id="_Path_3" data-name="&lt;Path&gt;" d="M124,164.69v12.632a.941.941,0,0,1-1.554.618L116.28,172.8a1,1,0,0,0-1.245-.009l-7.37,5.948a1,1,0,0,1-1.237,0l-7.286-5.944a1,1,0,0,0-1.241,0l-7.286,5.944a1,1,0,0,1-1.239,0l-7.368-5.948a1,1,0,0,0-1.247.009L74.6,177.941a.942.942,0,0,1-1.556-.618V114.478a5.315,5.315,0,0,1,5.56-5.028h39.842A5.314,5.314,0,0,1,124,114.478Z" transform="translate(-73.04 -109.45)" fill="#01dc34"/>
          </g>
        </g>
        <g id="_Group_8" data-name="&lt;Group&gt;">
          <path id="_Compound_Path_" data-name="&lt;Compound Path&gt;" d="M66.343,101.387a2.469,2.469,0,0,0,2.617-.327l5.863-4.891,7.063,5.7.016.013a2.458,2.458,0,0,0,3.047-.006l.018-.015,6.982-5.7,6.982,5.7.016.013a2.454,2.454,0,0,0,3.048.009l.016-.013,7.063-5.7,5.864,4.892a2.486,2.486,0,0,0,2.625.327,2.291,2.291,0,0,0,1.356-2.069V89.755l3.993,3.344a2.421,2.421,0,0,0,1.556.562,2.3,2.3,0,0,0,1.009-.233,2.238,2.238,0,0,0,1.3-2.068V81.792l4.044,3.344a2.492,2.492,0,0,0,1.583.562,2.529,2.529,0,0,0,1.061-.233,2.288,2.288,0,0,0,1.354-2.068V20.551A6.835,6.835,0,0,0,127.795,14H87.953a6.855,6.855,0,0,0-7.05,6.551v1.492h-.91a6.7,6.7,0,0,0-6.95,6.471V29.9H72.03A6.853,6.853,0,0,0,65,36.476V99.32a2.28,2.28,0,0,0,1.343,2.068ZM83.827,20.551a3.938,3.938,0,0,1,4.126-3.627h39.842a3.918,3.918,0,0,1,4.105,3.627V82.187l-5.118-4.2V28.513a6.7,6.7,0,0,0-6.95-6.471H83.827Zm-7.86,7.962a3.78,3.78,0,0,1,4.025-3.546h39.84a3.78,3.78,0,0,1,4.025,3.546V90.149l-4.935-4.2V36.476a6.872,6.872,0,0,0-7.05-6.573h-35.9Zm-8.043,7.962a3.935,3.935,0,0,1,4.105-3.648h39.842A3.955,3.955,0,0,1,116,36.476V98.11l-5.337-4.439c-.006,0-.018-.01-.025-.014a2.458,2.458,0,0,0-3.067-.024l-.02.014-7.067,5.7-6.984-5.7-.015-.012a2.449,2.449,0,0,0-3.06,0l-.015.012-6.985,5.7-7.065-5.7-.018-.015a2.456,2.456,0,0,0-3.063.022c-.007.006-.018.011-.024.017l-5.326,4.439Z" transform="translate(-65 -14)"/>
          <path id="_Path_4" data-name="&lt;Path&gt;" d="M143.052,197.245h22.978a1.462,1.462,0,0,0,0-2.925H143.052a1.462,1.462,0,0,0,0,2.925Zm11.488-16.317a5.118,5.118,0,0,1-5.111-5.113,1.462,1.462,0,0,0-2.925,0,8.05,8.05,0,0,0,6.127,7.806v2.656a1.462,1.462,0,0,0,2.925,0v-2.492a8.035,8.035,0,0,0-1.016-16.006,5.109,5.109,0,0,1-.446-10.2h0a1.443,1.443,0,0,0,.183-.016c.092,0,.181-.009.263-.009a5.118,5.118,0,0,1,5.113,5.112,1.462,1.462,0,0,0,2.925,0,8.048,8.048,0,0,0-7.021-7.971v-2.234a1.462,1.462,0,0,0-2.925,0v2.4A8.037,8.037,0,0,0,154.54,170.7a5.112,5.112,0,1,1,0,10.223Z" transform="translate(-127.59 -125.958)"/>
        </g>
      </g>
    </g>
  </g>
</svg>
