<svg xmlns="http://www.w3.org/2000/svg" width="37" height="37.002" viewBox="0 0 37 37.002">
  <g id="Page-1" transform="translate(274 -606)">
    <g id="Dribbble-Light-Preview" transform="translate(-274 606)">
      <g id="icons">
        <path id="call-_192_" data-name="call-[#192]" d="M83.335,7193.058c-1.142,3.471-5.617,5.2-8.813,4.915-4.366-.4-9.117-2.712-12.723-5.262a41.9,41.9,0,0,1-13.16-15.7c-2.045-4.35-2.5-9.7.538-13.661a5.228,5.228,0,0,1,4.169-2.339c2.536-.123,2.891,1.326,3.762,3.586.649,1.69,1.515,3.413,2,5.166.905,3.27-2.259,3.4-2.659,6.075-.247,1.684,1.793,3.944,2.716,5.145a24.965,24.965,0,0,0,6.433,5.927c1.406.885,3.671,2.481,5.279,1.6,2.477-1.356,2.245-5.532,5.705-4.118a55.5,55.5,0,0,1,5.242,2.706c2.647,1.423,2.523,2.9,1.515,5.962-.755,2.289.755-2.291,0,0" transform="translate(-47 -7161)" fill="#fff" fill-rule="evenodd"/>
      </g>
    </g>
  </g>
</svg>
