<svg xmlns="http://www.w3.org/2000/svg" width="102.791" height="62.297" viewBox="0 0 102.791 62.297">
  <g id="Group_22" data-name="Group 22" transform="translate(-2 -1024.361)">
    <path id="Path_73" data-name="Path 73" d="M60.483,1036.207H85.261v-9.344H10.5v4.672l49.938,2.336Z" transform="translate(17.972 5.289)" fill="#0e538c"/>
    <path id="Path_74" data-name="Path 74" d="M4,1030.362v37.379H69.413v-37.379Z" transform="translate(4.23 12.692)" fill="#01e135"/>
    <path id="Path_75" data-name="Path 75" d="M14.9,1024.361a4.922,4.922,0,0,0-4.9,4.9v9.485h3.115v-9.485a1.744,1.744,0,0,1,1.782-1.785H82.975a1.744,1.744,0,0,1,1.782,1.785v40.048a1.744,1.744,0,0,1-1.782,1.775H60.259v3.115H82.975a4.916,4.916,0,0,0,4.9-4.89v-40.048a4.922,4.922,0,0,0-4.9-4.9Z" transform="translate(16.919 0)"/>
    <path id="Path_76" data-name="Path 76" d="M26.8,1032.384a6.229,6.229,0,1,1-.149,11.347" transform="translate(52.136 15.866)" fill="#f8b84e" stroke="#000" stroke-width="1"/>
    <circle id="Ellipse_2" data-name="Ellipse 2" cx="6.23" cy="6.23" r="6.23" transform="translate(84.544 1047.726)" fill="#25b39e" stroke="#000" stroke-width="1"/>
    <path id="Path_77" data-name="Path 77" d="M6.9,1028.361a4.921,4.921,0,0,0-4.9,4.9v40.048a4.916,4.916,0,0,0,4.9,4.89H74.975a4.916,4.916,0,0,0,4.9-4.89v-40.048a4.921,4.921,0,0,0-4.9-4.9Zm0,3.115H74.975a1.744,1.744,0,0,1,1.782,1.785v40.048a1.744,1.744,0,0,1-1.782,1.775H6.9a1.744,1.744,0,0,1-1.782-1.775v-40.048a1.744,1.744,0,0,1,1.782-1.785Z" transform="translate(0 8.46)"/>
    <path id="Path_78" data-name="Path 78" d="M22.96,1032.363a12.457,12.457,0,1,0,12.46,12.453,12.479,12.479,0,0,0-12.46-12.453Zm0,3.115a9.353,9.353,0,1,1-9.345,9.344A9.32,9.32,0,0,1,22.96,1035.478Z" transform="translate(17.977 16.923)"/>
    <path id="Path_79" data-name="Path 79" d="M49.108,1033.361v3.115h6.23v-3.115Zm3.115,7.787v3.115h9.345v-3.115Zm-3.115,7.787v3.115h6.23v-3.115ZM11.73,1033.361v3.115h6.23v-3.115Zm-6.23,7.787v3.115h9.345v-3.115Zm6.23,7.787v3.115h6.23v-3.115Z" transform="translate(7.402 19.034)" fill-rule="evenodd"/>
  </g>
</svg>
